<svg width="20" height="17" viewBox="0 0 20 17" fill="none" xmlns="http://www.w3.org/2000/svg">
<path id="Vector" d="M19.8039 0.82357H5.4902C5.38235 0.82357 5.29412 0.911805 5.29412 1.01965V2.3922C5.29412 2.50004 5.38235 2.58828 5.4902 2.58828H19.8039C19.9118 2.58828 20 2.50004 20 2.3922V1.01965C20 0.911805 19.9118 0.82357 19.8039 0.82357ZM19.8039 7.78435H5.4902C5.38235 7.78435 5.29412 7.87259 5.29412 7.98043V9.35298C5.29412 9.46082 5.38235 9.54906 5.4902 9.54906H19.8039C19.9118 9.54906 20 9.46082 20 9.35298V7.98043C20 7.87259 19.9118 7.78435 19.8039 7.78435ZM19.8039 14.7451H5.4902C5.38235 14.7451 5.29412 14.8334 5.29412 14.9412V16.3138C5.29412 16.4216 5.38235 16.5098 5.4902 16.5098H19.8039C19.9118 16.5098 20 16.4216 20 16.3138V14.9412C20 14.8334 19.9118 14.7451 19.8039 14.7451ZM0 1.70592C-2.68587e-09 1.88617 0.0355021 2.06465 0.104479 2.23117C0.173456 2.3977 0.274557 2.54901 0.40201 2.67646C0.529463 2.80391 0.680772 2.90502 0.847297 2.97399C1.01382 3.04297 1.1923 3.07847 1.37255 3.07847C1.55279 3.07847 1.73128 3.04297 1.8978 2.97399C2.06433 2.90502 2.21563 2.80391 2.34309 2.67646C2.47054 2.54901 2.57164 2.3977 2.64062 2.23117C2.7096 2.06465 2.7451 1.88617 2.7451 1.70592C2.7451 1.52568 2.7096 1.3472 2.64062 1.18067C2.57164 1.01415 2.47054 0.862837 2.34309 0.735384C2.21563 0.607931 2.06433 0.50683 1.8978 0.437853C1.73128 0.368876 1.55279 0.333374 1.37255 0.333374C1.1923 0.333374 1.01382 0.368876 0.847297 0.437853C0.680772 0.50683 0.529463 0.607931 0.40201 0.735384C0.274557 0.862837 0.173456 1.01415 0.104479 1.18067C0.0355021 1.3472 -2.68587e-09 1.52568 0 1.70592ZM0 8.66671C-2.68587e-09 8.84695 0.0355021 9.02543 0.104479 9.19196C0.173456 9.35848 0.274557 9.50979 0.40201 9.63725C0.529463 9.7647 0.680772 9.8658 0.847297 9.93478C1.01382 10.0038 1.1923 10.0393 1.37255 10.0393C1.55279 10.0393 1.73128 10.0038 1.8978 9.93478C2.06433 9.8658 2.21563 9.7647 2.34309 9.63725C2.47054 9.50979 2.57164 9.35848 2.64062 9.19196C2.7096 9.02543 2.7451 8.84695 2.7451 8.66671C2.7451 8.48646 2.7096 8.30798 2.64062 8.14146C2.57164 7.97493 2.47054 7.82362 2.34309 7.69617C2.21563 7.56872 2.06433 7.46761 1.8978 7.39864C1.73128 7.32966 1.55279 7.29416 1.37255 7.29416C1.1923 7.29416 1.01382 7.32966 0.847297 7.39864C0.680772 7.46761 0.529463 7.56872 0.40201 7.69617C0.274557 7.82362 0.173456 7.97493 0.104479 8.14146C0.0355021 8.30798 -2.68587e-09 8.48646 0 8.66671ZM0 15.6275C-2.68587e-09 15.8077 0.0355021 15.9862 0.104479 16.1527C0.173456 16.3193 0.274557 16.4706 0.40201 16.598C0.529463 16.7255 0.680772 16.8266 0.847297 16.8956C1.01382 16.9645 1.1923 17 1.37255 17C1.55279 17 1.73128 16.9645 1.8978 16.8956C2.06433 16.8266 2.21563 16.7255 2.34309 16.598C2.47054 16.4706 2.57164 16.3193 2.64062 16.1527C2.7096 15.9862 2.7451 15.8077 2.7451 15.6275C2.7451 15.4472 2.7096 15.2688 2.64062 15.1022C2.57164 14.9357 2.47054 14.7844 2.34309 14.657C2.21563 14.5295 2.06433 14.4284 1.8978 14.3594C1.73128 14.2904 1.55279 14.2549 1.37255 14.2549C1.1923 14.2549 1.01382 14.2904 0.847297 14.3594C0.680772 14.4284 0.529463 14.5295 0.40201 14.657C0.274557 14.7844 0.173456 14.9357 0.104479 15.1022C0.0355021 15.2688 -2.68587e-09 15.4472 0 15.6275Z" fill="#0056D2" fill-opacity="0.5"/>
</svg>
