<svg width="30" height="30" viewBox="0 0 30 30" fill="none" xmlns="http://www.w3.org/2000/svg">
<g id="Group 61">
<rect id="Rectangle 6" width="30" height="30" rx="9" fill="#0056D2" fill-opacity="0.1"/>
<path id="Vector" d="M14.9981 21.9953C14.6004 21.9953 14.219 21.8373 13.9378 21.5561C13.6566 21.2749 13.4986 20.8935 13.4986 20.4958H16.4977C16.4977 20.8935 16.3397 21.2749 16.0585 21.5561C15.7772 21.8373 15.3958 21.9953 14.9981 21.9953ZM20.9962 19.746H9V18.2465L10.4995 17.4967V13.373C10.46 12.3152 10.6989 11.2655 11.1923 10.329C11.4351 9.89955 11.7662 9.5265 12.1637 9.23441C12.5613 8.94233 13.0162 8.73786 13.4986 8.63449V7H16.2322C15.7573 7.53084 15.4625 8.1984 15.3901 8.90703C15.3177 9.61567 15.4715 10.329 15.8294 10.9449C16.1873 11.5608 16.7309 12.0476 17.3824 12.3357C18.0339 12.6237 18.7598 12.6981 19.4562 12.5483C19.4825 12.8159 19.4952 13.0933 19.4952 13.373V17.4967L20.9947 18.2465V19.746H20.9962ZM18.747 11.4986C18.4516 11.4981 18.1592 11.4394 17.8865 11.3259C17.6138 11.2125 17.3661 11.0464 17.1576 10.8371C16.949 10.6279 16.7838 10.3797 16.6712 10.1066C16.5586 9.83352 16.5009 9.54093 16.5014 9.24555C16.5019 8.95017 16.5606 8.65778 16.6741 8.38507C16.7875 8.11236 16.9536 7.86467 17.1629 7.65616C17.3721 7.44764 17.6203 7.28237 17.8934 7.16979C18.1665 7.0572 18.4591 6.99951 18.7544 7C19.351 7.001 19.9227 7.23893 20.3438 7.66146C20.765 8.08399 21.001 8.6565 21 9.25305C20.999 9.8496 20.7611 10.4213 20.3385 10.8424C19.916 11.2636 19.3435 11.4996 18.747 11.4986Z" fill="#0056D2"/>
</g>
</svg>
