<svg width="30" height="30" viewBox="0 0 30 30" fill="none" xmlns="http://www.w3.org/2000/svg">
<g id="Group 58">
<rect id="Rectangle 6" width="30" height="30" rx="9" fill="#0056D2" fill-opacity="0.1"/>
<path id="Vector" d="M17.0066 8.00179C17.2383 8.00134 17.4629 8.08203 17.6413 8.22986C17.7417 8.31311 17.8247 8.41534 17.8855 8.53071C17.9464 8.64608 17.9838 8.77232 17.9958 8.9022C18.0078 9.03208 17.994 9.16304 17.9553 9.28759C17.9166 9.41214 17.8537 9.52783 17.7702 9.62803L13.3278 14.943L17.6115 20.268C17.6939 20.3694 17.7554 20.4861 17.7925 20.6114C17.8296 20.7367 17.8416 20.868 17.8278 20.998C17.814 21.1279 17.7746 21.2538 17.712 21.3685C17.6493 21.4832 17.5647 21.5843 17.4628 21.6661C17.3602 21.7564 17.24 21.8245 17.1099 21.8661C16.9797 21.9078 16.8424 21.9221 16.7064 21.9081C16.5705 21.8941 16.4389 21.8522 16.3199 21.785C16.2009 21.7177 16.0971 21.6266 16.015 21.5174L11.2256 15.5678C11.0797 15.3903 11 15.1678 11 14.9381C11 14.7084 11.0797 14.4858 11.2256 14.3084L16.1836 8.35877C16.2831 8.23877 16.4095 8.14391 16.5525 8.08189C16.6955 8.01986 16.8511 7.99242 17.0066 8.00179Z" fill="#0056D2"/>
</g>
</svg>
