<svg width="60" height="60" viewBox="0 0 60 60" fill="none" xmlns="http://www.w3.org/2000/svg">
<g id="Group 86">
<circle id="Ellipse 45" cx="30" cy="30" r="30" fill="#0056D2" fill-opacity="0.1"/>
<g id="Group">
<path id="Vector" d="M26.8504 31.8004C26.731 31.8004 26.6166 31.753 26.5322 31.6686C26.4478 31.5842 26.4004 31.4697 26.4004 31.3504C26.4004 31.231 26.4478 31.1166 26.5322 31.0322C26.6166 30.9478 26.731 30.9004 26.8504 30.9004C26.9697 30.9004 27.0842 30.9478 27.1686 31.0322C27.253 31.1166 27.3004 31.231 27.3004 31.3504C27.3004 31.4697 27.253 31.5842 27.1686 31.6686C27.0842 31.753 26.9697 31.8004 26.8504 31.8004ZM33.1504 31.8004C33.031 31.8004 32.9166 31.753 32.8322 31.6686C32.7478 31.5842 32.7004 31.4697 32.7004 31.3504C32.7004 31.231 32.7478 31.1166 32.8322 31.0322C32.9166 30.9478 33.031 30.9004 33.1504 30.9004C33.2697 30.9004 33.3842 30.9478 33.4686 31.0322C33.553 31.1166 33.6004 31.231 33.6004 31.3504C33.6004 31.4697 33.553 31.5842 33.4686 31.6686C33.3842 31.753 33.2697 31.8004 33.1504 31.8004Z" fill="#0056D2" stroke="#0056D2" stroke-width="1.5" stroke-linecap="round" stroke-linejoin="round"/>
<path id="Vector_2" d="M28.2 35.4H31.8M39 30C39 34.9707 34.9707 39 30 39C25.0293 39 21 34.9707 21 30C21 25.0293 25.0293 21 30 21C34.9707 21 39 25.0293 39 30Z" stroke="#0056D2" stroke-width="1.5" stroke-linecap="round" stroke-linejoin="round"/>
</g>
</g>
</svg>
