<svg width="30" height="30" viewBox="0 0 30 30" fill="none" xmlns="http://www.w3.org/2000/svg">
<g id="Group 83">
<rect id="Rectangle 6" x="30" y="30" width="30" height="30" rx="9" transform="rotate(-180 30 30)" fill="#0056D2" fill-opacity="0.1"/>
<path id="Vector" d="M12.9934 21.9982C12.7617 21.9986 12.5371 21.9179 12.3587 21.7701C12.2583 21.6868 12.1753 21.5846 12.1145 21.4692C12.0536 21.3539 12.0162 21.2276 12.0042 21.0978C11.9922 20.9679 12.006 20.8369 12.0447 20.7124C12.0834 20.5878 12.1463 20.4721 12.2298 20.3719L16.6722 15.0569L12.3885 9.73198C12.3061 9.63055 12.2446 9.51384 12.2075 9.38856C12.1704 9.26329 12.1584 9.13191 12.1722 9.00198C12.186 8.87205 12.2254 8.74613 12.288 8.63147C12.3507 8.5168 12.4353 8.41565 12.5372 8.33382C12.6398 8.24354 12.76 8.17545 12.8901 8.13382C13.0203 8.09218 13.1576 8.0779 13.2936 8.09186C13.4295 8.10583 13.5611 8.14774 13.6801 8.21498C13.7991 8.28221 13.9029 8.37331 13.985 8.48256L18.7744 14.4322C18.9203 14.6096 19 14.8322 19 15.0619C19 15.2916 18.9203 15.5141 18.7744 15.6915L13.8164 21.6412C13.7169 21.7612 13.5905 21.856 13.4475 21.9181C13.3045 21.9801 13.1489 22.0075 12.9934 21.9982Z" fill="#0056D2"/>
</g>
</svg>
