<svg width="20" height="20" viewBox="0 0 20 20" fill="none" xmlns="http://www.w3.org/2000/svg">
<path id="Vector" d="M19.7418 10.331L10.7418 0.331026C10.3628 -0.0909736 9.63476 -0.0909736 9.25576 0.331026L0.255762 10.331C0.126453 10.4747 0.0415494 10.6527 0.0113253 10.8437C-0.0188988 11.0346 0.00685168 11.2301 0.0854609 11.4067C0.16407 11.5833 0.292169 11.7333 0.454257 11.8386C0.616345 11.9439 0.805475 12 0.998762 12H2.99876V19C2.99876 19.2652 3.10412 19.5196 3.29166 19.7071C3.47919 19.8947 3.73355 20 3.99876 20H15.9988C16.264 20 16.5183 19.8947 16.7059 19.7071C16.8934 19.5196 16.9988 19.2652 16.9988 19V12H18.9988C19.1924 12.0009 19.3822 11.9453 19.5448 11.8402C19.7074 11.735 19.836 11.5848 19.9147 11.4079C19.9935 11.231 20.0191 11.035 19.9884 10.8438C19.9577 10.6525 19.872 10.4744 19.7418 10.331ZM9.99876 14C9.20311 14 8.44005 13.684 7.87744 13.1213C7.31483 12.5587 6.99876 11.7957 6.99876 11C6.99876 10.2044 7.31483 9.44131 7.87744 8.87871C8.44005 8.3161 9.20311 8.00003 9.99876 8.00003C10.7944 8.00003 11.5575 8.3161 12.1201 8.87871C12.6827 9.44131 12.9988 10.2044 12.9988 11C12.9988 11.7957 12.6827 12.5587 12.1201 13.1213C11.5575 13.684 10.7944 14 9.99876 14Z" fill="#0056D2"/>
</svg>
