<svg width="37" height="37" viewBox="0 0 37 37" fill="none" xmlns="http://www.w3.org/2000/svg">
<g id="Group 58">
<rect id="Rectangle 6" width="37" height="37" rx="10" fill="#0056D2" fill-opacity="0.1"/>
<path id="Vector" d="M10 13.4167C10 13.0409 10.1493 12.6806 10.4149 12.4149C10.6806 12.1493 11.0409 12 11.4167 12H25.5833C25.9591 12 26.3194 12.1493 26.5851 12.4149C26.8507 12.6806 27 13.0409 27 13.4167C27 13.7924 26.8507 14.1527 26.5851 14.4184C26.3194 14.6841 25.9591 14.8333 25.5833 14.8333H11.4167C11.0409 14.8333 10.6806 14.6841 10.4149 14.4184C10.1493 14.1527 10 13.7924 10 13.4167ZM12.8333 19.0833C12.8333 18.7076 12.9826 18.3473 13.2483 18.0816C13.5139 17.8159 13.8743 17.6667 14.25 17.6667H22.75C23.1257 17.6667 23.4861 17.8159 23.7517 18.0816C24.0174 18.3473 24.1667 18.7076 24.1667 19.0833C24.1667 19.4591 24.0174 19.8194 23.7517 20.0851C23.4861 20.3507 23.1257 20.5 22.75 20.5H14.25C13.8743 20.5 13.5139 20.3507 13.2483 20.0851C12.9826 19.8194 12.8333 19.4591 12.8333 19.0833ZM17.0833 23.3333C16.7076 23.3333 16.3473 23.4826 16.0816 23.7483C15.8159 24.0139 15.6667 24.3743 15.6667 24.75C15.6667 25.1257 15.8159 25.4861 16.0816 25.7517C16.3473 26.0174 16.7076 26.1667 17.0833 26.1667H19.9167C20.2924 26.1667 20.6527 26.0174 20.9184 25.7517C21.1841 25.4861 21.3333 25.1257 21.3333 24.75C21.3333 24.3743 21.1841 24.0139 20.9184 23.7483C20.6527 23.4826 20.2924 23.3333 19.9167 23.3333H17.0833Z" fill="#0056D2"/>
</g>
</svg>
