<svg width="35" height="35" viewBox="0 0 35 35" fill="none" xmlns="http://www.w3.org/2000/svg">
<g id="carbon:overflow-menu-vertical">
<path id="Vector" d="M17.5 10.9375C18.7081 10.9375 19.6875 9.95812 19.6875 8.75C19.6875 7.54188 18.7081 6.5625 17.5 6.5625C16.2919 6.5625 15.3125 7.54188 15.3125 8.75C15.3125 9.95812 16.2919 10.9375 17.5 10.9375Z" fill="#0056D2"/>
<path id="Vector_2" d="M17.5 19.6875C18.7081 19.6875 19.6875 18.7081 19.6875 17.5C19.6875 16.2919 18.7081 15.3125 17.5 15.3125C16.2919 15.3125 15.3125 16.2919 15.3125 17.5C15.3125 18.7081 16.2919 19.6875 17.5 19.6875Z" fill="#0056D2"/>
<path id="Vector_3" d="M17.5 28.4375C18.7081 28.4375 19.6875 27.4581 19.6875 26.25C19.6875 25.0419 18.7081 24.0625 17.5 24.0625C16.2919 24.0625 15.3125 25.0419 15.3125 26.25C15.3125 27.4581 16.2919 28.4375 17.5 28.4375Z" fill="#0056D2"/>
</g>
</svg>
