<svg width="21" height="19" viewBox="0 0 21 19" fill="none" xmlns="http://www.w3.org/2000/svg">
<path id="Vector" d="M4.156 18.7546C4.01242 18.8795 3.8362 18.9608 3.64803 18.989C3.45987 19.0172 3.26756 18.9911 3.09369 18.9138C2.91982 18.8366 2.7716 18.7113 2.66644 18.5527C2.56128 18.3941 2.50354 18.2089 2.5 18.0186V15.7756C1.96957 15.7756 1.46086 15.5649 1.08579 15.1898C0.710714 14.8148 0.5 14.3061 0.5 13.7756V6.77563C0.5 6.2452 0.710714 5.73649 1.08579 5.36142C1.46086 4.98635 1.96957 4.77563 2.5 4.77563H13.5C14.0304 4.77563 14.5391 4.98635 14.9142 5.36142C15.2893 5.73649 15.5 6.2452 15.5 6.77563V13.7756C15.5 14.3061 15.2893 14.8148 14.9142 15.1898C14.5391 15.5649 14.0304 15.7756 13.5 15.7756H8.503L4.156 18.7546ZM16.5 10.7926C16.4968 10.9156 16.4968 11.0387 16.5 11.1616V10.7916C16.505 10.6846 16.506 9.34464 16.504 6.77263C16.5032 5.97751 16.1868 5.21521 15.6243 4.65325C15.0617 4.09129 14.2991 3.77563 13.504 3.77563H5.5V2.77563C5.5 2.2452 5.71071 1.73649 6.08579 1.36142C6.46086 0.986348 6.96957 0.775635 7.5 0.775635L18.5 0.775635C19.0304 0.775635 19.5391 0.986348 19.9142 1.36142C20.2893 1.73649 20.5 2.2452 20.5 2.77563V9.77563C20.5 10.3061 20.2893 10.8148 19.9142 11.1898C19.5391 11.5649 19.0304 11.7756 18.5 11.7756V14.0186C18.4965 14.2089 18.4387 14.3941 18.3336 14.5527C18.2284 14.7113 18.0802 14.8366 17.9063 14.9138C17.7324 14.9911 17.5401 15.0172 17.352 14.989C17.1638 14.9608 16.9876 14.8795 16.844 14.7546L16.5 14.5186V10.7926Z" fill="#0056D2" fill-opacity="0.5"/>
</svg>
