<svg width="10" height="14" viewBox="0 0 10 14" fill="none" xmlns="http://www.w3.org/2000/svg">
<path id="Vector" d="M1.11557e-07 1.66667V12.9167C-5.28282e-05 12.989 0.0187371 13.0601 0.0545205 13.123C0.0903039 13.1859 0.141847 13.2384 0.204076 13.2753C0.266306 13.3122 0.337076 13.3323 0.409421 13.3336C0.481766 13.3348 0.553191 13.3172 0.616667 13.2825L5 10.8908L9.38333 13.2825C9.44681 13.3172 9.51823 13.3348 9.59058 13.3336C9.66292 13.3323 9.73369 13.3122 9.79592 13.2753C9.85815 13.2384 9.9097 13.1859 9.94548 13.123C9.98126 13.0601 10.0001 12.989 10 12.9167V1.66667C10 1.22464 9.8244 0.800716 9.51184 0.488155C9.19928 0.175595 8.77536 0 8.33333 0L1.66667 0C1.22464 0 0.800716 0.175595 0.488155 0.488155C0.175595 0.800716 1.11557e-07 1.22464 1.11557e-07 1.66667Z" fill="#0056D2"/>
</svg>
