<svg width="18" height="18" viewBox="0 0 18 18" fill="none" xmlns="http://www.w3.org/2000/svg">
<path id="Vector" d="M8.75 0C6.43802 0.0278934 4.22859 0.958721 2.59366 2.59366C0.958721 4.22859 0.0278934 6.43802 0 8.75C0.0278934 11.062 0.958721 13.2714 2.59366 14.9063C4.22859 16.5413 6.43802 17.4721 8.75 17.5C11.062 17.4721 13.2714 16.5413 14.9063 14.9063C16.5413 13.2714 17.4721 11.062 17.5 8.75C17.4721 6.43802 16.5413 4.22859 14.9063 2.59366C13.2714 0.958721 11.062 0.0278934 8.75 0ZM13.75 9.375H9.375V13.75H8.125V9.375H3.75V8.125H8.125V3.75H9.375V8.125H13.75V9.375Z" fill="#0056D2"/>
</svg>
