<svg width="25" height="25" viewBox="0 0 25 25" fill="none" xmlns="http://www.w3.org/2000/svg">
<g id="Group 90">
<circle id="Ellipse 51" cx="12.5" cy="12.5" r="12.5" fill="#0056D2" fill-opacity="0.1"/>
<path id="Vector" d="M13 7C9.688 7 7 9.688 7 13C7 16.312 9.688 19 13 19C16.312 19 19 16.312 19 13C19 9.688 16.312 7 13 7ZM13 9.4C14.158 9.4 15.1 10.342 15.1 11.5C15.1 12.658 14.158 13.6 13 13.6C11.842 13.6 10.9 12.658 10.9 11.5C10.9 10.342 11.842 9.4 13 9.4ZM13 17.8C11.782 17.8 10.342 17.308 9.316 16.072C10.367 15.2474 11.6642 14.7993 13 14.7993C14.3358 14.7993 15.633 15.2474 16.684 16.072C15.658 17.308 14.218 17.8 13 17.8Z" fill="#0056D2"/>
</g>
</svg>
