<svg width="20" height="26" viewBox="0 0 20 26" fill="none" xmlns="http://www.w3.org/2000/svg">
<path id="Vector" d="M17.5 25.0011H2.5C1.83696 25.0011 1.20107 24.7377 0.732233 24.2689C0.263392 23.8 0 23.1641 0 22.5011V2.5011C0 1.83806 0.263392 1.20217 0.732233 0.733333C1.20107 0.264492 1.83696 0.00109991 2.5 0.00109991H11.25C11.2612 -0.000366635 11.2725 -0.000366635 11.2838 0.00109991H11.2913C11.3031 0.0047895 11.3152 0.00730179 11.3275 0.00859996C11.4375 0.0161 11.5463 0.0373498 11.6512 0.0723498H11.7037C11.7268 0.0884985 11.7486 0.106473 11.7688 0.1261C11.9049 0.186653 12.029 0.271352 12.135 0.3761L19.635 7.8761C19.7398 7.98208 19.8245 8.10617 19.885 8.24235C19.8959 8.26938 19.9055 8.29691 19.9137 8.32485L19.9263 8.35985C19.9613 8.4636 19.9812 8.57235 19.9875 8.68235C19.9886 8.6948 19.9915 8.70702 19.9963 8.7186V8.7261C19.9983 8.7343 19.9995 8.74267 20 8.7511V22.5011C20 23.1641 19.7366 23.8 19.2678 24.2689C18.7989 24.7377 18.163 25.0011 17.5 25.0011ZM13.03 15.0011V21.2511H14.205V18.7011H16.03V17.6536H14.205V16.0524H16.25V15.0011H13.03ZM8.405 15.0011V21.2511H9.9125C10.2247 21.2665 10.5364 21.2117 10.8246 21.0905C11.1128 20.9693 11.3701 20.785 11.5775 20.5511C12.0086 20.001 12.2246 19.3127 12.185 18.6149V17.6024C12.2141 16.9119 11.992 16.2342 11.56 15.6949C11.1538 15.2324 10.56 14.9774 9.94375 15.0011H8.405ZM3.75 15.0011V21.2511H4.925V19.0524H5.7075C6.23 19.0811 6.74 18.8874 7.1125 18.5199C7.46736 18.1227 7.65149 17.6018 7.625 17.0699C7.6482 16.5251 7.46418 15.9919 7.11 15.5774C6.93697 15.3855 6.72361 15.2343 6.48522 15.1347C6.24684 15.035 5.98935 14.9894 5.73125 15.0011H3.75ZM11.25 2.5011V8.7511H17.5L11.25 2.5011ZM9.9325 20.2036H9.58V16.0524H10.0075C10.1569 16.0435 10.3061 16.0723 10.4415 16.1361C10.5769 16.1999 10.6941 16.2966 10.7825 16.4174C10.9663 16.7961 11.045 17.2174 11.01 17.6374V18.7236C11.0375 19.1236 10.9513 19.5236 10.76 19.8749C10.6591 19.9927 10.531 20.0841 10.3868 20.1414C10.2427 20.1987 10.0868 20.22 9.9325 20.2036ZM5.73125 18.0011H4.92375V16.0524H5.7425C5.84305 16.0534 5.94168 16.08 6.02913 16.1297C6.11659 16.1793 6.19001 16.2503 6.2425 16.3361C6.3775 16.5599 6.4425 16.8174 6.43 17.0786C6.44567 17.3217 6.38112 17.5632 6.24625 17.7661C6.18496 17.843 6.10637 17.9044 6.01688 17.9452C5.92739 17.9861 5.82953 18.0052 5.73125 18.0011Z" fill="#FF0606"/>
</svg>
