<svg width="25" height="25" viewBox="0 0 25 25" fill="none" xmlns="http://www.w3.org/2000/svg">
<g id="Group 91">
<circle id="Ellipse 51" cx="12.5" cy="12.5" r="12.5" fill="#0056D2" fill-opacity="0.1"/>
<path id="Vector" d="M17.3027 10.0094C17.383 10.0897 17.4286 10.1982 17.4286 10.3121V18.5714C17.4286 18.8085 17.2371 19 17 19H8.42857C8.19152 19 8 18.8085 8 18.5714V7.42857C8 7.19152 8.19152 7 8.42857 7H14.1165C14.2304 7 14.3402 7.04554 14.4205 7.12589L17.3027 10.0094ZM16.4402 10.5089L13.9196 7.98839V10.5089H16.4402ZM10.1429 12.5982C10.1144 12.5982 10.0872 12.6095 10.0671 12.6296C10.047 12.6497 10.0357 12.6769 10.0357 12.7054V13.3482C10.0357 13.3766 10.047 13.4039 10.0671 13.424C10.0872 13.4441 10.1144 13.4554 10.1429 13.4554H15.2857C15.3141 13.4554 15.3414 13.4441 15.3615 13.424C15.3816 13.4039 15.3929 13.3766 15.3929 13.3482V12.7054C15.3929 12.6769 15.3816 12.6497 15.3615 12.6296C15.3414 12.6095 15.3141 12.5982 15.2857 12.5982H10.1429ZM10.1429 14.4196C10.1144 14.4196 10.0872 14.4309 10.0671 14.451C10.047 14.4711 10.0357 14.4984 10.0357 14.5268V15.1696C10.0357 15.1981 10.047 15.2253 10.0671 15.2454C10.0872 15.2655 10.1144 15.2768 10.1429 15.2768H12.6071C12.6356 15.2768 12.6628 15.2655 12.6829 15.2454C12.703 15.2253 12.7143 15.1981 12.7143 15.1696V14.5268C12.7143 14.4984 12.703 14.4711 12.6829 14.451C12.6628 14.4309 12.6356 14.4196 12.6071 14.4196H10.1429Z" fill="#0056D2"/>
</g>
</svg>
