<svg width="25" height="25" viewBox="0 0 25 25" fill="none" xmlns="http://www.w3.org/2000/svg">
<g id="Group 90">
<circle id="Ellipse 51" cx="12.5" cy="12.5" r="12.5" fill="#0056D2" fill-opacity="0.1"/>
<path id="Vector" d="M13.9135 19H11.7295C11.5927 19 11.4599 18.9533 11.3533 18.8675C11.2467 18.7817 11.1726 18.6621 11.1433 18.5284L10.8991 17.398C10.5733 17.2553 10.2645 17.0768 9.97811 16.8658L8.87591 17.2168C8.74545 17.2584 8.60468 17.2541 8.47698 17.2047C8.34929 17.1552 8.24234 17.0636 8.17391 16.945L7.07951 15.0544C7.0118 14.9357 6.98638 14.7975 7.00742 14.6625C7.02845 14.5274 7.0947 14.4035 7.19531 14.311L8.05031 13.531C8.01143 13.1777 8.01143 12.8211 8.05031 12.4678L7.19531 11.6896C7.09456 11.5971 7.02822 11.473 7.00718 11.3379C6.98614 11.2027 7.01165 11.0644 7.07951 10.9456L8.17151 9.0538C8.23994 8.93519 8.34689 8.84355 8.47459 8.79411C8.60228 8.74467 8.74305 8.7404 8.87351 8.782L9.97571 9.133C10.1221 9.025 10.2745 8.9242 10.4317 8.833C10.5835 8.7478 10.7395 8.6704 10.8991 8.6014L11.1439 7.4722C11.1731 7.33852 11.247 7.21881 11.3535 7.13293C11.46 7.04705 11.5927 7.00014 11.7295 7H13.9135C14.0503 7.00014 14.183 7.04705 14.2895 7.13293C14.396 7.21881 14.47 7.33852 14.4991 7.4722L14.7463 8.602C15.0717 8.74556 15.3805 8.92401 15.6673 9.1342L16.7701 8.7832C16.9005 8.74175 17.0411 8.7461 17.1687 8.79554C17.2963 8.84497 17.4031 8.93652 17.4715 9.055L18.5635 10.9468C18.7027 11.191 18.6547 11.5 18.4477 11.6902L17.5927 12.4702C17.6316 12.8235 17.6316 13.1801 17.5927 13.5334L18.4477 14.3134C18.6547 14.5042 18.7027 14.8126 18.5635 15.0568L17.4715 16.9486C17.4031 17.0672 17.2961 17.1588 17.1684 17.2083C17.0407 17.2577 16.9 17.262 16.7695 17.2204L15.6673 16.8694C15.3812 17.0802 15.0725 17.2585 14.7469 17.401L14.4991 18.5284C14.4699 18.662 14.3958 18.7815 14.2893 18.8673C14.1828 18.9531 14.0503 18.9999 13.9135 19ZM12.8191 10.6C12.1826 10.6 11.5721 10.8529 11.1221 11.3029C10.672 11.753 10.4191 12.3635 10.4191 13C10.4191 13.6365 10.672 14.247 11.1221 14.6971C11.5721 15.1471 12.1826 15.4 12.8191 15.4C13.4556 15.4 14.0661 15.1471 14.5162 14.6971C14.9663 14.247 15.2191 13.6365 15.2191 13C15.2191 12.3635 14.9663 11.753 14.5162 11.3029C14.0661 10.8529 13.4556 10.6 12.8191 10.6Z" fill="#0056D2"/>
</g>
</svg>
