<svg width="137" height="35" viewBox="0 0 137 35" fill="none" xmlns="http://www.w3.org/2000/svg">
<g id="Vector">
<path d="M20.4296 34.3L13.2041 13.608H7.45212L0 34.3H6.03537L7.08376 30.912H13.4025L14.3942 34.3H20.4296ZM8.50052 25.9L10.314 20.188L12.0707 25.9H8.50052Z" fill="#070707"/>
<path d="M27.4753 34.3V27.944C27.4753 25.06 28.5803 23.604 30.7621 23.604C31.4705 23.604 32.2072 23.744 32.9439 23.996L33.3973 18.76C32.7456 18.452 32.0655 18.312 31.3855 18.312C29.6571 18.312 28.297 19.068 27.2769 20.58V18.732H21.9216V34.3H27.4753Z" fill="#070707"/>
<path d="M44.4752 18.34C42.9451 18.34 41.6133 18.788 40.5083 19.656V12.908H34.9546V34.3H40.3099V33.18C41.4717 34.188 42.8601 34.692 44.5035 34.692C46.742 34.692 48.5838 33.936 50.0572 32.396C51.559 30.856 52.2957 28.896 52.2957 26.516C52.2957 24.136 51.559 22.204 50.0572 20.664C48.5838 19.124 46.7137 18.34 44.4752 18.34ZM46.6287 26.488C46.6287 28.28 45.2686 29.68 43.4551 29.68C41.6417 29.68 40.2816 28.28 40.2816 26.488C40.2816 24.724 41.6417 23.352 43.4551 23.352C45.2686 23.352 46.6287 24.724 46.6287 26.488Z" fill="#070707"/>
<path d="M70.6116 26.096C70.6116 23.716 69.8466 21.812 68.2881 20.44C66.7297 19.04 64.7746 18.34 62.4228 18.34C59.901 18.34 57.8325 19.124 56.2458 20.664C54.6873 22.204 53.8939 24.164 53.8939 26.516C53.8939 28.812 54.659 30.744 56.1891 32.312C57.7192 33.852 59.8726 34.636 62.6778 34.636C65.313 34.636 67.6364 33.936 69.6766 32.508L67.5231 28.868C66.1347 29.764 64.6329 30.212 62.9612 30.212C61.2611 30.212 60.1277 29.568 59.5326 28.252H70.4416C70.555 27.468 70.6116 26.74 70.6116 26.096ZM62.4228 22.652C63.8679 22.652 64.8313 23.296 65.313 24.584H59.4476C59.9576 23.296 60.9494 22.652 62.4228 22.652Z" fill="#070707"/>
<path d="M72.6101 14.476C72.6101 16.24 73.9419 17.528 75.727 17.528C77.5121 17.528 78.8438 16.24 78.8438 14.476C78.8438 12.768 77.5121 11.424 75.727 11.424C73.9985 11.424 72.6101 12.768 72.6101 14.476ZM78.5322 18.732H72.9501V34.3H78.5322V18.732Z" fill="#070707"/>
<path d="M92.5815 29.036C91.6464 29.456 90.8247 29.68 90.173 29.68C88.9546 29.68 88.3312 28.896 88.3312 27.356V23.268H93.0915V18.732H88.3312V13.216H82.8059V18.732H80.4257V23.268H82.7492V28.14C82.7492 32.508 84.761 34.692 88.7846 34.692C90.7397 34.692 92.4965 34.272 93.9982 33.432L92.5815 29.036Z" fill="#070707"/>
<path fill-rule="evenodd" clip-rule="evenodd" d="M137 0H101.581V35H108.382L115.834 14.308H121.586L128.811 35H137V0ZM122.776 35L121.784 31.612H115.465L114.417 35H122.776ZM118.696 20.888L116.882 26.6H120.452L118.696 20.888Z" fill="#0056D2"/>
</g>
</svg>
